<?xml version="1.0" encoding="utf-8"?>
<!-- Generator: Adobe Illustrator 22.1.0, SVG Export Plug-In . SVG Version: 6.00 Build 0)  -->
<svg version="1.1" id="Lager_1" xmlns="http://www.w3.org/2000/svg" xmlns:xlink="http://www.w3.org/1999/xlink" x="0px" y="0px"
	 viewBox="0 0 455 100" style="enable-background:new 0 0 455 100;" xml:space="preserve">
<style type="text/css">
	.st0{fill:#1A1F3C;stroke:#1A1F3C;stroke-miterlimit:10;}
	.st1{font-family:'MyriadPro-Regular';}
	.st2{font-size:54.2385px;}
	.st3{fill:none;stroke:#1A1F3C;stroke-width:3;stroke-miterlimit:10;}
</style>
<text transform="matrix(1 0 0 1 119.3628 65.4639)" class="st0 st1 st2">Dammsugaren</text>
<g>
	<path class="st3" d="M36.6,22.4"/>
	<path class="st3" d="M46.5,22.2c8,39.2,1.9,70-17.6,73.3C11.8,98.5,5.2,85,12.9,76.7"/>
	<path class="st3" d="M7.2,49.6C10.8,22.9,33.6,4.2,54.7,4.2c29.2,0,53.5,26.9,43.2,59.1c-7.6,23.9-16.6,27.5-27.1,25.9
		C62.5,87.8,55,76.2,58.3,67.2c2.3-6.4,10.4-12,14.5-10.6c2.7,0.9,4.4,5,2.8,7.6c-1.7,2.7-6.9,3.9-11.8,1.7"/>
</g>
</svg>
